<?xml version="1.0" encoding="utf-8"?>
<!-- Generator: Adobe Illustrator 22.1.0, SVG Export Plug-In . SVG Version: 6.00 Build 0)  -->
<svg version="1.1" id="knockout" xmlns="http://www.w3.org/2000/svg" xmlns:xlink="http://www.w3.org/1999/xlink" x="0px" y="0px"
	 viewBox="0 0 1000 1000" enable-background="new 0 0 1000 1000" xml:space="preserve">
<g>
	<path fill="#2B51A3" d="M502.4,388.56c8.75,0,17.5,0.02,26.24,0.05c-0.01-7.55-0.02-11.32-0.03-18.86
		c-8.74-0.01-17.47-0.01-26.21-0.01C502.39,377.26,502.39,381.03,502.4,388.56z"/>
	<path fill="#2B51A3" d="M590.27,369.82c-17.78-0.03-35.56-0.05-53.35-0.07c0.08,42.38,0.17,84.77,0.25,127.15
		c7.54,0.2,11.3,0.33,18.8,0.63c-0.06-36.26-0.13-72.52-0.19-108.79c11.49,0.09,22.98,0.19,34.48,0.31
		C590.26,381.37,590.27,377.52,590.27,369.82z"/>
	<path fill="#2B51A3" d="M458.31,369.76c-14.81,0.01-29.62,0.03-44.42,0.06c-0.06,7.7-0.1,11.54-0.16,19.24
		c14.83-0.17,29.67-0.3,44.5-0.38C458.27,381.11,458.28,377.32,458.31,369.76z"/>
	<path fill="#2B51A3" d="M672.72,486.97c-15.08-1.61-30.17-3.05-45.29-4.31c-0.03,7.87-0.05,11.81-0.09,19.68
		c15.08,1.47,30.13,3.15,45.17,5.04C672.6,499.21,672.64,495.13,672.72,486.97z"/>
	<path fill="#2B51A3" d="M386.73,369.88c-0.45,43.85-0.9,87.7-1.35,131.54c7.6-0.66,11.41-0.96,19.02-1.51
		c0.16-17.59,0.31-35.18,0.47-52.77c15.59-0.66,31.18-1.18,46.78-1.57c0.04-7.58,0.06-11.37,0.09-18.95
		c-15.57,0.29-31.14,0.69-46.7,1.19c0.17-19.33,0.34-38.65,0.52-57.98C398.04,369.85,394.27,369.86,386.73,369.88z"/>
	<path fill="#2B51A3" d="M811.84,532.31c0.5-33.62,1.01-67.25,1.51-100.87c11.02,19.5,21.74,39.15,32.23,58.94
		c0.7,0.12,1.05,0.19,1.76,0.31c4.49-6.58,6.73-9.92,11.2-16.72c-19.41-36.3-39.65-72.08-61.17-107.18c-0.63,0-0.94,0-1.57,0
		c-0.87,53.8-1.74,107.6-2.6,161.4C800.63,529.79,804.36,530.62,811.84,532.31z"/>
	<path fill="#2B51A3" d="M764.2,522.25c7.87,1.54,11.82,2.33,19.73,3.98c-4.84-16.77-9.73-33.52-14.73-50.24
		c-15.68-2.14-31.38-4.13-47.09-5.97c-2.42,7.49-3.62,11.21-6.03,18.61c13.6,1.85,27.18,3.82,40.75,5.92
		C759.31,503.78,761.76,513.01,764.2,522.25z"/>
	<path fill="#2B51A3" d="M900,327.72h-48.42L731.23,207.37c-1.04-1.04-2.45-1.63-3.93-1.63H274.79c-1.47,0-2.88,0.58-3.93,1.63
		L150.51,327.72H100v11.1h800V327.72z M364.19,295.25l-31.4-8.42l-8.42,31.4l-8.42-31.4l-31.4,8.42l22.97-22.97l-22.97-22.97
		l31.4,8.42l8.42-31.4l8.42,31.4l31.4-8.42l-22.97,22.97L364.19,295.25z M481.28,295.25l-31.4-8.42l-8.42,31.4l-8.42-31.4
		l-31.4,8.42l22.97-22.97l-22.97-22.97l31.4,8.42l8.42-31.4l8.42,31.4l31.4-8.42l-22.97,22.97L481.28,295.25z M598.36,295.25
		l-31.4-8.42l-8.42,31.4l-8.42-31.4l-31.4,8.42l22.97-22.97l-22.97-22.97l31.4,8.42l8.42-31.4l8.42,31.4l31.4-8.42l-22.97,22.97
		L598.36,295.25z M715.45,295.25l-31.4-8.42l-8.42,31.4l-8.42-31.4l-31.4,8.42l22.97-22.97l-22.97-22.97l31.4,8.42l8.42-31.4
		l8.42,31.4l31.4-8.42l-22.97,22.97L715.45,295.25z"/>
	<path fill="#2B51A3" d="M459.43,478.14c-15.5,0.46-30.97,1.11-46.45,1.95c-0.06,7.7-0.1,11.54-0.16,19.24
		c15.5-0.98,31.01-1.74,46.53-2.27C459.38,489.49,459.4,485.7,459.43,478.14z"/>
	<path fill="#2B51A3" d="M747.67,461.64c7.12,0.81,10.68,1.23,17.81,2.1c-9.88-32.65-20.09-65.2-30.7-97.62c-0.63,0-0.94,0-1.57,0
		c-17.17,47.62-34.96,95.01-53.16,142.25c7.71,1.03,11.56,1.58,19.28,2.73c11.53-33.31,22.86-66.68,33.96-100.14
		C738.17,427.83,742.96,444.73,747.67,461.64z"/>
	<path fill="#2B51A3" d="M600.78,369.84c-0.06,43.42-0.12,86.83-0.18,130.25c7.43,0.55,11.14,0.85,18.56,1.5
		c0.06-17.81,0.12-35.62,0.18-53.44c15.33,0.84,30.65,1.81,45.96,2.91c0.07-8.11,0.11-12.16,0.18-20.26
		c-15.36-0.84-30.71-1.58-46.08-2.22c0.07-19.57,0.13-39.14,0.2-58.71C612.08,369.86,608.31,369.86,600.78,369.84z"/>
	<path fill="#2B51A3" d="M672.31,370.04c-14.8-0.05-29.59-0.1-44.39-0.13c-0.03,7.87-0.05,11.81-0.09,19.68
		c14.76,0.23,29.52,0.51,44.28,0.83C672.19,382.26,672.23,378.19,672.31,370.04z"/>
	<path fill="#2B51A3" d="M267.89,516.53c0.09-7.24,0.19-14.48,0.28-21.72c-15.73,2.33-31.43,4.83-47.1,7.5
		c-0.09,7.66-0.18,15.33-0.26,22.99C236.47,522.17,252.15,519.25,267.89,516.53z"/>
	<path fill="#2B51A3" d="M324.3,489.55c-0.09,7.16-0.19,14.33-0.28,21.49c27.45-6.08,41.32-32.53,41.54-58.97
		c0.31-27.38,0.62-54.76,0.94-82.14c-7.53,0.02-11.3,0.03-18.83,0.06c-0.34,27.79-0.68,55.58-1.02,83.37
		C346.57,468.43,340.49,485.52,324.3,489.55z"/>
	<path fill="#2B51A3" d="M503.11,526.76c-94.22,0-185.64,8.44-271.71,25.07c-46.57,9-90.49,20.18-131.4,33.43v11.68
		c41.45-13.59,86.08-25.04,133.51-34.21c4.61-0.89,9.23-1.75,13.87-2.6c0.18-0.03,0.35-0.07,0.53-0.1c4.7-0.85,9.41-1.68,14.13-2.48
		c0,0,0.01,0,0.01,0l235.07,235.07c1.04,1.04,2.45,1.63,3.93,1.63c1.47,0,2.88-0.58,3.93-1.63l235.67-235.67
		c0.41,0.07,0.81,0.14,1.22,0.21c2.28,0.38,4.57,0.77,6.84,1.17c0.09,0.01,0.17,0.03,0.26,0.05c5.28,0.92,10.53,1.86,15.77,2.84
		c2.67,0.5,5.33,1,7.98,1.52c45.06,8.71,87.6,19.48,127.28,32.19v-11.66c-39.13-12.38-80.96-22.89-125.17-31.43
		C688.76,535.2,597.34,526.76,503.11,526.76z M668.9,549.2c4.41,5.18,7.19,9.99,8.13,11.74c0.12,0.21-0.12,0.44-0.33,0.33
		c-2.18-1.18-9.1-5.19-15.58-11.67c-0.46-0.46-0.91-0.93-1.35-1.4C662.82,548.52,665.86,548.86,668.9,549.2z M649.83,560.55
		c0.21-0.11,0.44,0.12,0.33,0.33c-1.18,2.18-5.19,9.1-11.67,15.58s-13.4,10.49-15.58,11.67c-0.21,0.12-0.44-0.12-0.33-0.33
		c1.18-2.18,5.19-9.1,11.67-15.58C640.73,565.74,647.65,561.74,649.83,560.55z M610.03,543.83c0.53,0.49,1.06,1,1.59,1.53
		c6.48,6.48,10.49,13.4,11.67,15.58c0.12,0.21-0.12,0.44-0.33,0.33c-2.18-1.18-9.1-5.19-15.58-11.67c-2.12-2.12-3.97-4.28-5.54-6.31
		C604.57,543.46,607.3,543.64,610.03,543.83z M600.46,590.09c3.1,2.03,7.21,5.06,11.16,9.01c6.48,6.48,10.49,13.4,11.67,15.58
		c0.12,0.21-0.12,0.44-0.33,0.33c-2.18-1.18-9.1-5.19-15.58-11.67c-2.77-2.77-5.08-5.62-6.92-8.14V590.09z M552.93,540.9
		c1.62,1.32,3.3,2.81,4.94,4.46c6.48,6.48,10.49,13.4,11.67,15.58c0.12,0.21-0.12,0.44-0.33,0.33c-2.18-1.18-9.1-5.19-15.58-11.67
		c-3.05-3.05-5.55-6.19-7.46-8.9C548.43,540.76,550.68,540.83,552.93,540.9z M538.73,603.74v-18.69l42.04,37.45v-35.2h13.76v65.98
		L538.73,603.74z M569.22,668.75c-2.18-1.18-9.1-5.19-15.58-11.67c-0.11-0.11-0.22-0.22-0.33-0.34c2.18-0.27,3.98-1.72,4.77-3.69
		c6.36,6.42,10.3,13.22,11.47,15.37C569.67,668.63,569.43,668.86,569.22,668.75z M451.91,630.93l11.01,8.43
		c-5.51,7.01-13.68,11.76-22.94,12.76c0-0.08,0-13.93,0-13.93C444.74,637.19,448.91,634.6,451.91,630.93z M439.99,599.98
		c0,0,0-11.85,0-14.18c9.26,0.92,17.52,5.84,22.94,13.01l-11.01,8.51C448.91,603.57,444.74,600.98,439.99,599.98z M452.32,654.85
		c5.35,5.85,8.7,11.62,9.76,13.57c0.12,0.21-0.12,0.44-0.33,0.33c-2.18-1.18-9.1-5.19-15.58-11.67c-0.02-0.02-0.04-0.05-0.07-0.07
		C448.23,656.46,450.31,655.74,452.32,654.85z M461.36,695.29c1.18-2.18,5.19-9.1,11.67-15.58c6.48-6.48,13.4-10.49,15.58-11.67
		c0.21-0.12,0.44,0.12,0.33,0.33c-1.18,2.18-5.19,9.1-11.67,15.58c-6.48,6.48-13.4,10.49-15.58,11.67
		C461.47,695.73,461.24,695.5,461.36,695.29z M477.88,645.16l9.85-9.85c7.55,5.07,18.17,4.25,24.83-2.42
		c6.67-6.67,7.25-17.05,2.18-24.6l10.03-10.03c10.56,13.04,9.73,32.27-2.42,44.42C510.2,654.83,490.97,655.66,477.88,645.16z
		 M515.48,668.75c-2.03-1.1-8.2-4.67-14.29-10.42c2.35-0.15,4.68-0.5,6.97-1.06c4.13,4.96,6.74,9.47,7.65,11.16
		C515.93,668.63,515.69,668.86,515.48,668.75z M509.61,603.04c-7.55-5.19-17.93-4.48-24.66,2.24c-6.72,6.72-7.61,17.28-2.42,24.83
		l-9.85,9.85c-10.5-13.1-9.67-32.32,2.48-44.47c12.15-12.15,31.38-12.98,44.47-2.48L509.61,603.04z M488.56,694.9
		c2.18,1.18,9.1,5.19,15.58,11.67c6.48,6.48,10.49,13.4,11.67,15.58c0.12,0.21-0.12,0.44-0.33,0.33c-2.18-1.18-9.1-5.19-15.58-11.67
		c-6.48-6.48-10.49-13.4-11.67-15.58C488.11,695.02,488.34,694.79,488.56,694.9z M515.43,695.62c-0.21,0.11-0.44-0.12-0.33-0.33
		c1.18-2.18,5.19-9.1,11.67-15.58c6.48-6.48,13.4-10.49,15.58-11.67c0.21-0.12,0.44,0.12,0.33,0.33c-1.18,2.18-5.19,9.1-11.67,15.58
		C524.52,690.43,517.6,694.44,515.43,695.62z M538.73,650.87v-37.7l13.85,12.26v25.44H538.73z M526.77,572.23
		c6.48-6.48,13.4-10.49,15.58-11.67c0.21-0.11,0.44,0.12,0.33,0.33c-1.18,2.18-5.19,9.1-11.67,15.58c-4.09,4.09-8.36,7.2-11.49,9.23
		c-0.77-0.48-1.56-0.95-2.36-1.37C519.17,581.14,522.41,576.59,526.77,572.23z M498.2,540.11c1.92,1.51,3.95,3.26,5.93,5.25
		c6.48,6.48,10.49,13.4,11.67,15.58c0.12,0.21-0.12,0.44-0.33,0.33c-2.18-1.18-9.1-5.19-15.58-11.67c-3.26-3.26-5.9-6.64-7.86-9.46
		C494.09,540.12,496.15,540.11,498.2,540.11z M488.61,560.55c0.21-0.11,0.44,0.12,0.33,0.33c-1.18,2.18-5.19,9.1-11.67,15.58
		c-6.48,6.48-13.4,10.49-15.58,11.67c-0.21,0.12-0.44-0.12-0.33-0.33c1.18-2.18,5.19-9.1,11.67-15.58
		C479.51,565.74,486.44,561.74,488.61,560.55z M445.77,541.16c1.52,1.26,3.09,2.65,4.63,4.2c6.48,6.48,10.49,13.4,11.67,15.58
		c0.12,0.21-0.12,0.44-0.33,0.33c-2.18-1.18-9.1-5.19-15.58-11.67c-2.78-2.78-5.1-5.64-6.95-8.17
		C441.4,541.33,443.58,541.24,445.77,541.16z M434.87,560.55c0.21-0.11,0.44,0.12,0.33,0.33c-1.18,2.18-5.19,9.1-11.67,15.58
		c-6.48,6.48-13.4,10.49-15.58,11.67c-0.21,0.12-0.44-0.12-0.33-0.33c1.18-2.18,5.19-9.1,11.67-15.58
		C425.77,565.74,432.7,561.74,434.87,560.55z M432.64,638.27v13.85c-16.68-1.83-29.53-15.85-29.53-33.03
		c0-17.18,12.85-31.53,29.53-33.37v14.26c-9.01,1.67-15.68,9.59-15.68,19.1C416.96,628.59,423.64,636.6,432.64,638.27z
		 M395.14,543.9c0.51,0.47,1.01,0.96,1.52,1.46c6.48,6.48,10.49,13.4,11.67,15.58c0.12,0.21-0.12,0.44-0.33,0.33
		c-2.18-1.18-9.1-5.19-15.58-11.67c-1.72-1.72-3.26-3.46-4.62-5.15C390.25,544.26,392.69,544.07,395.14,543.9z M400.45,603.25
		c-0.76,1.77-1.4,3.6-1.9,5.49c-1.98-1.55-4.08-3.35-6.13-5.41c-6.48-6.48-10.49-13.4-11.67-15.58c-0.12-0.21,0.12-0.44,0.33-0.33
		c2.18,1.18,9.1,5.19,15.58,11.67C398.04,600.48,399.3,601.88,400.45,603.25z M381.13,560.55c0.21-0.11,0.44,0.12,0.33,0.33
		c-1.18,2.18-5.19,9.1-11.67,15.58c-6.48,6.48-13.4,10.49-15.58,11.67c-0.21,0.12-0.44-0.12-0.33-0.33
		c1.18-2.18,5.19-9.1,11.67-15.58C372.03,565.74,378.96,561.74,381.13,560.55z M345.65,548.28c4.88,5.53,7.93,10.81,8.94,12.66
		c0.12,0.21-0.12,0.44-0.33,0.33c-2.18-1.18-9.1-5.19-15.58-11.67c-0.17-0.17-0.32-0.33-0.49-0.5
		C340.68,548.82,343.16,548.54,345.65,548.28z M300.52,561.27c-1.47-0.8-5.09-2.88-9.28-6.14c1.82-0.27,3.64-0.52,5.47-0.78
		c2.12,3,3.52,5.45,4.14,6.59C300.97,561.15,300.73,561.38,300.52,561.27z M305.36,585.16l-2.24-2.24c2.03-3.04,4.95-6.94,8.7-10.69
		c6.48-6.48,13.4-10.49,15.58-11.67c0.21-0.11,0.44,0.12,0.33,0.33c-1.18,2.18-5.19,9.1-11.67,15.58
		C312.29,580.22,308.4,583.14,305.36,585.16z M354.26,615.01c-2.18-1.18-9.1-5.19-15.58-11.67c-6.48-6.48-10.49-13.4-11.67-15.58
		c-0.12-0.21,0.12-0.44,0.33-0.33c2.18,1.18,9.1,5.19,15.58,11.67c6.48,6.48,10.49,13.4,11.67,15.58
		C354.71,614.89,354.47,615.12,354.26,615.01z M359.1,638.9l-2.24-2.24c2.03-3.04,4.95-6.94,8.7-10.69
		c6.48-6.48,13.4-10.49,15.58-11.67c0.21-0.11,0.44,0.12,0.33,0.33c-1.18,2.18-5.19,9.1-11.67,15.58
		C366.03,633.96,362.14,636.88,359.1,638.9z M408,668.75c-2.18-1.18-9.1-5.19-15.58-11.67c-6.48-6.48-10.49-13.4-11.67-15.58
		c-0.12-0.21,0.12-0.44,0.33-0.33c2.18,1.18,9.1,5.19,15.58,11.67c6.48,6.48,10.49,13.4,11.67,15.58
		C408.45,668.63,408.21,668.86,408,668.75z M412.84,692.64l-2.24-2.24c2.03-3.04,4.95-6.94,8.7-10.69
		c6.48-6.48,13.4-10.49,15.58-11.67c0.21-0.12,0.44,0.12,0.33,0.33c-1.18,2.18-5.19,9.1-11.67,15.58
		C419.77,687.7,415.88,690.62,412.84,692.64z M461.74,722.49c-2.18-1.18-9.1-5.19-15.58-11.67c-6.48-6.48-10.49-13.4-11.67-15.58
		c-0.12-0.21,0.12-0.44,0.33-0.33c2.18,1.18,9.1,5.19,15.58,11.67c6.48,6.48,10.49,13.4,11.67,15.58
		C462.19,722.37,461.95,722.6,461.74,722.49z M466.58,746.38l-2.24-2.24c2.03-3.04,4.95-6.94,8.7-10.69
		c6.48-6.48,13.4-10.49,15.58-11.67c0.21-0.12,0.44,0.12,0.33,0.33c-1.18,2.18-5.19,9.1-11.67,15.58
		C473.51,741.44,469.62,744.36,466.58,746.38z M509.44,772.47c-2.84-1.97-6.24-4.62-9.53-7.91c-6.48-6.48-10.49-13.4-11.67-15.58
		c-0.12-0.21,0.12-0.44,0.33-0.33c2.18,1.18,9.1,5.19,15.58,11.67c3.29,3.29,5.94,6.7,7.91,9.54L509.44,772.47z M542.68,722.1
		c-1.18,2.18-5.19,9.1-11.67,15.58c-6.48,6.48-13.4,10.49-15.58,11.67c-0.21,0.12-0.44-0.12-0.33-0.33
		c1.18-2.18,5.19-9.1,11.67-15.58c6.48-6.48,13.4-10.49,15.58-11.67C542.56,721.66,542.8,721.89,542.68,722.1z M563.18,718.73
		c-2.84-1.97-6.24-4.62-9.54-7.91c-6.48-6.48-10.49-13.4-11.67-15.58c-0.12-0.21,0.12-0.44,0.33-0.33
		c2.18,1.18,9.1,5.19,15.58,11.67c3.29,3.29,5.94,6.7,7.91,9.54L563.18,718.73z M596.42,668.36c-1.18,2.18-5.19,9.1-11.67,15.58
		c-6.48,6.48-13.4,10.49-15.58,11.67c-0.21,0.11-0.44-0.12-0.33-0.33c1.18-2.18,5.19-9.1,11.67-15.58
		c6.48-6.48,13.4-10.49,15.58-11.67C596.3,667.92,596.54,668.15,596.42,668.36z M596.42,560.88c-1.18,2.18-5.19,9.1-11.67,15.58
		s-13.4,10.49-15.58,11.67c-0.21,0.12-0.44-0.12-0.33-0.33c1.18-2.18,5.19-9.1,11.67-15.58c6.48-6.48,13.4-10.49,15.58-11.67
		C596.3,560.44,596.54,560.67,596.42,560.88z M616.91,664.99c-2.84-1.97-6.24-4.62-9.53-7.91c-2.77-2.77-5.08-5.62-6.92-8.14v-5.1
		c3.1,2.03,7.21,5.06,11.16,9.01c3.29,3.29,5.94,6.7,7.91,9.54L616.91,664.99z M650.16,614.62c-1.18,2.18-5.19,9.1-11.67,15.58
		c-6.48,6.48-13.4,10.49-15.58,11.67c-0.21,0.11-0.44-0.12-0.33-0.33c1.18-2.18,5.19-9.1,11.67-15.58
		c6.48-6.48,13.4-10.49,15.58-11.67C650.04,614.18,650.27,614.41,650.16,614.62z M670.65,611.25c-2.84-1.97-6.24-4.62-9.54-7.91
		c-6.48-6.48-10.49-13.4-11.67-15.58c-0.12-0.21,0.12-0.44,0.33-0.33c2.18,1.18,9.1,5.19,15.58,11.67c3.29,3.29,5.94,6.7,7.91,9.54
		L670.65,611.25z M703.9,560.88c-1.18,2.18-5.19,9.1-11.67,15.58s-13.4,10.49-15.58,11.67c-0.21,0.12-0.44-0.12-0.33-0.33
		c1.18-2.18,5.19-9.1,11.67-15.58c6.48-6.48,13.4-10.49,15.58-11.67C703.78,560.44,704.01,560.67,703.9,560.88z"/>
	<path fill="#2B51A3" d="M898.43,366.9c-14.35,26.12-29.51,51.71-45.5,76.85c3.91,6.97,7.76,13.97,11.6,20.97
		c5.62-8.81,11.16-17.67,16.62-26.59c-0.17,37.07-0.34,74.14-0.51,111.21c7.71,2.06,11.58,3.12,19.36,5.28
		c0-62.58,0-125.15,0-187.73C899.37,366.9,899.06,366.9,898.43,366.9z"/>
	<path fill="#2B51A3" d="M154.13,416.73c-0.09,11.14-5.89,25.71-19,26.5c-3.3,0.37-4.95,0.55-8.25,0.92
		c-0.02,7.38-0.05,14.77-0.07,22.15c4.97-0.72,7.45-1.08,12.42-1.78c14.93-2.46,21.57,11.15,21.43,23.89
		c-0.16,13.88-6.84,28.74-21.69,31.99c-4.94,1.1-7.41,1.66-12.35,2.79c-0.03,8.05-0.05,16.11-0.08,24.16
		c5.35-1.42,8.03-2.12,13.39-3.5c25.03-5.86,39.52-32.14,39.83-56.3c0.2-15.64-6.23-32.84-22.41-38.05
		c10.34-8.65,15.16-23.21,15.39-36.19c0.38-21.13-13.23-41.97-35.89-42.23c-12.28,0.09-24.57,0.18-36.85,0.27
		c0,7.68,0,15.36,0,23.04c11.78-0.49,23.56-0.96,35.35-1.41C148.44,391.64,154.22,406.15,154.13,416.73z"/>
	<path fill="#2B51A3" d="M212.54,526.98c0.57-52.13,1.15-104.26,1.72-156.4c-7.53,0.04-11.3,0.07-18.83,0.11
		c-0.52,53.43-1.04,106.86-1.57,160.29C201.33,529.34,205.06,528.54,212.54,526.98z"/>
	<path fill="#2B51A3" d="M295.56,370.18c-7.53,0.03-11.3,0.05-18.83,0.08c-0.39,29.78-0.79,59.56-1.18,89.34
		c0.67,24.9,9.53,54.31,39.96,52.59c0.09-7.22,0.19-14.44,0.28-21.66c-16.98-0.16-21.76-19.14-21.4-32.8
		C294.78,428.55,295.17,399.37,295.56,370.18z"/>
	<path fill="#2B51A3" d="M118.73,407.39c-7.5,0.45-11.24,0.68-18.73,1.15c0,48.7,0,97.4,0,146.1c7.35-2.08,11.02-3.1,18.39-5.1
		C118.51,502.15,118.62,454.77,118.73,407.39z"/>
</g>
</svg>
